<svg xmlns="http://www.w3.org/2000/svg"><symbol style="enable-background:new 0 0 513 513" id="sprite-icon-callback" viewBox="0 0 513 513"><path d="M513 256.5c0 68.38-26.629 132.667-74.98 181.02C389.667 485.871 325.38 512.5 257 512.5c-52.59 0-103.121-15.831-146.131-45.78C82.215 446.767 58.23 421.541 40 392.438V446.5H0v-120h120v40H70.978c38.392 65.347 108.17 106 186.022 106 119.103 0 216-96.897 216-216h40zm-258-216c77.853 0 147.631 40.654 186.022 106H393v40h119v-120h-40v54.061c-18.23-29.102-42.215-54.329-70.869-74.281C358.121 16.331 307.59.5 255 .5 186.659.5 122.535 27.144 74.439 75.522 26.437 123.808 0 188.08 0 256.5h40c0-119.103 96.448-216 215-216zm-75.646 101-25.857 25.642c-11.558 11.556-12.78 27.601-7.504 43.872 9.132 28.166 18.733 50.284 62.715 94.256 43.981 43.973 67.283 51.094 94.663 62.379 6.303 2.598 12.257 3.85 17.836 3.85 9.917 0 18.648-3.958 26.045-11.353L373 334.297l-66.149-66.245-34.111 33.352c-9.043-6.616-19.285-15.482-31.988-28.182-12.849-12.846-22.641-23.755-30.036-33.488l33.113-33.385-64.475-64.849z"/></symbol><symbol style="enable-background:new 0 0 512 512" id="sprite-icon-clock" viewBox="0 0 512 512"><path d="M458.406 380.681c-8.863-6.593-21.391-4.752-27.984 4.109A217.989 217.989 0 0 1 418.889 399c-7.315 8.275-6.538 20.915 1.737 28.231a19.923 19.923 0 0 0 13.239 5.016c5.532 0 11.04-2.283 14.992-6.754a257.803 257.803 0 0 0 13.658-16.829c6.593-8.861 4.754-21.391-4.109-27.983zm33.448-93.795c-10.786-2.349-21.447 4.496-23.796 15.288a215.372 215.372 0 0 1-4.646 17.681c-3.261 10.554 2.651 21.752 13.204 25.013 1.967.607 3.955.896 5.911.896 8.54 0 16.448-5.514 19.102-14.102a255.373 255.373 0 0 0 5.514-20.98c2.349-10.792-4.496-21.446-15.289-23.796zM362.139 444.734a216.715 216.715 0 0 1-16.34 8.233c-10.067 4.546-14.542 16.392-9.996 26.459 3.34 7.396 10.619 11.773 18.239 11.773 2.752 0 5.549-.571 8.22-1.777a256.456 256.456 0 0 0 19.377-9.764c9.645-5.384 13.098-17.568 7.712-27.212-5.383-9.643-17.567-13.096-27.212-7.712zM236 96v151.716l-73.339 73.338c-7.81 7.811-7.81 20.474 0 28.284a19.935 19.935 0 0 0 14.143 5.858 19.943 19.943 0 0 0 14.143-5.858l79.196-79.196A20.001 20.001 0 0 0 276 256V96c0-11.046-8.954-20-20-20s-20 8.954-20 20z"/><path d="M492 43c-11.046 0-20 8.954-20 20v55.536C425.448 45.528 344.151 0 256 0 187.62 0 123.333 26.629 74.98 74.98 26.629 123.333 0 187.62 0 256s26.629 132.667 74.98 181.02C123.333 485.371 187.62 512 256 512c.169 0 .332-.021.5-.025.168.004.331.025.5.025 7.208 0 14.487-.304 21.637-.902 11.007-.922 19.183-10.592 18.262-21.599-.923-11.007-10.58-19.187-21.6-18.261-6.044.505-12.2.762-18.299.762-.169 0-.332.021-.5.025-.168-.004-.331-.025-.5-.025-119.103 0-216-96.897-216-216S136.897 40 256 40c76.758 0 147.357 40.913 185.936 106h-54.993c-11.046 0-20 8.954-20 20s8.954 20 20 20H448a63.612 63.612 0 0 0 33.277-9.353 19.968 19.968 0 0 0 1.796-1.152C500.479 164.044 512 144.347 512 122V63c0-11.046-8.954-20-20-20z"/></symbol><symbol style="enable-background:new 0 0 612 612" id="sprite-icon-customs" viewBox="0 0 612 612"><path d="M310.634 43.714H297.17c-7.194 0-13.026-5.833-13.026-13.026v-.438C284.144 13.543 270.6 0 253.893 0h-.699c-16.707 0-30.25 13.543-30.25 30.25v.438c0 7.194-5.833 13.027-13.026 13.027h-13.464c-14.341 0-25.966 11.625-25.966 25.966v.525c0 14.341 11.625 25.966 25.966 25.966h114.183c14.34 0 25.965-11.626 25.965-25.966v-.526c-.001-14.34-11.626-25.966-25.968-25.966zm-57.091 0c-7.243 0-13.114-5.872-13.114-13.114 0-7.243 5.872-13.115 13.114-13.115 7.243 0 13.114 5.872 13.114 13.115s-5.871 13.114-13.114 13.114zM311.929 550.8H91.8c-19.314 0-34.971-15.657-34.971-34.971V96.171c0-19.314 15.657-34.971 26.228-34.971h70.854a45.116 45.116 0 0 0-.91 9.008c0 23.958 19.492 43.45 43.454 43.45h114.178c23.963 0 43.453-19.492 43.453-43.979 0-2.903-.311-5.733-.855-8.479h53.312c28.059 0 43.715 15.657 43.715 34.971v262.728c-2.906-.181-5.791-.442-8.742-.442-12.094 0-23.771 1.704-34.973 4.604v-205.69h-306v349.715h201.528c.958 15.367 4.316 30.076 9.858 43.714zm129.586-166.114c-62.771 0-113.656 50.887-113.656 113.657S378.743 612 441.515 612s113.656-50.887 113.656-113.657-50.885-113.657-113.656-113.657zm74.267 90.305-69.943 78.686a17.442 17.442 0 0 1-13.076 5.865 17.406 17.406 0 0 1-10.916-3.833l-43.715-34.971c-7.539-6.028-8.764-17.034-2.727-24.573 6.027-7.547 17.037-8.769 24.576-2.731l30.748 24.598 58.916-66.28c6.408-7.215 17.465-7.872 24.684-1.451 7.221 6.42 7.869 17.468 1.453 24.69zM362.829 306H222.944a8.743 8.743 0 0 1-8.743-8.743v-8.743a8.743 8.743 0 0 1 8.743-8.743h139.885a8.745 8.745 0 0 1 8.744 8.743v8.743c-.002 4.828-3.916 8.743-8.744 8.743zm0-78.686H222.944a8.743 8.743 0 0 1-8.743-8.743v-8.743a8.743 8.743 0 0 1 8.743-8.743h139.885a8.745 8.745 0 0 1 8.744 8.743v8.743a8.745 8.745 0 0 1-8.744 8.743zm-43.715 148.629h-96.17a8.743 8.743 0 0 1-8.743-8.743v-8.743a8.743 8.743 0 0 1 8.743-8.743h96.17a8.743 8.743 0 0 1 8.744 8.743v8.743a8.745 8.745 0 0 1-8.744 8.743zm-17.485 78.686h-78.686a8.743 8.743 0 0 1-8.743-8.743v-8.743a8.743 8.743 0 0 1 8.743-8.743h78.686a8.743 8.743 0 0 1 8.743 8.743v8.743a8.743 8.743 0 0 1-8.743 8.743zM197.461 194.981l-32.199 36.224a8.03 8.03 0 0 1-6.02 2.701 8.012 8.012 0 0 1-5.025-1.765l-20.125-16.099a8.046 8.046 0 0 1-1.256-11.312 8.044 8.044 0 0 1 11.314-1.258l14.155 11.323 27.123-30.513a8.047 8.047 0 0 1 11.363-.668 8.05 8.05 0 0 1 .67 11.367zm0 77.786-32.199 36.223a8.029 8.029 0 0 1-6.02 2.7 8.006 8.006 0 0 1-5.025-1.765l-20.125-16.099a8.046 8.046 0 0 1-1.256-11.312 8.044 8.044 0 0 1 11.314-1.258l14.155 11.324 27.123-30.513a8.046 8.046 0 0 1 11.363-.667 8.05 8.05 0 0 1 .67 11.367zm0 74.389-32.199 36.224a8.033 8.033 0 0 1-6.02 2.7 8.006 8.006 0 0 1-5.025-1.765l-20.125-16.1a8.046 8.046 0 0 1-1.256-11.312 8.044 8.044 0 0 1 11.314-1.258l14.155 11.323 27.123-30.513a8.047 8.047 0 0 1 11.363-.668 8.052 8.052 0 0 1 .67 11.369zm0 74.914-32.199 36.224a8.029 8.029 0 0 1-6.02 2.7 8.006 8.006 0 0 1-5.025-1.765l-20.125-16.1a8.046 8.046 0 0 1-1.256-11.312 8.044 8.044 0 0 1 11.314-1.258l14.155 11.323 27.123-30.513a8.047 8.047 0 0 1 11.363-.668 8.052 8.052 0 0 1 .67 11.369z"/></symbol><symbol style="enable-background:new 0 0 612 612" id="sprite-icon-docs" viewBox="0 0 612 612"><path d="M310.634 43.714H297.17c-7.194 0-13.026-5.833-13.026-13.026v-.438C284.144 13.543 270.6 0 253.893 0h-.699c-16.707 0-30.25 13.543-30.25 30.25v.438c0 7.194-5.833 13.027-13.026 13.027h-13.464c-14.341 0-25.966 11.625-25.966 25.966v.525c0 14.341 11.625 25.966 25.966 25.966h114.183c14.34 0 25.965-11.626 25.965-25.966v-.526c-.001-14.34-11.626-25.966-25.968-25.966zm-57.091 0c-7.243 0-13.114-5.872-13.114-13.114 0-7.243 5.872-13.115 13.114-13.115 7.243 0 13.114 5.872 13.114 13.115s-5.871 13.114-13.114 13.114zM311.929 550.8H91.8c-19.314 0-34.971-15.657-34.971-34.971V96.171c0-19.314 15.657-34.971 26.228-34.971h70.854a45.116 45.116 0 0 0-.91 9.008c0 23.958 19.492 43.45 43.454 43.45h114.178c23.963 0 43.453-19.492 43.453-43.979 0-2.903-.311-5.733-.855-8.479h53.312c28.059 0 43.715 15.657 43.715 34.971v262.728c-2.906-.181-5.791-.442-8.742-.442-12.094 0-23.771 1.704-34.973 4.604v-205.69h-306v349.715h201.528c.958 15.367 4.316 30.076 9.858 43.714zm129.586-166.114c-62.771 0-113.656 50.887-113.656 113.657S378.743 612 441.515 612s113.656-50.887 113.656-113.657-50.885-113.657-113.656-113.657zm74.267 90.305-69.943 78.686a17.442 17.442 0 0 1-13.076 5.865 17.406 17.406 0 0 1-10.916-3.833l-43.715-34.971c-7.539-6.028-8.764-17.034-2.727-24.573 6.027-7.547 17.037-8.769 24.576-2.731l30.748 24.598 58.916-66.28c6.408-7.215 17.465-7.872 24.684-1.451 7.221 6.42 7.869 17.468 1.453 24.69zM362.829 306H135.515a8.743 8.743 0 0 1-8.743-8.743v-8.743a8.743 8.743 0 0 1 8.743-8.743h227.314a8.745 8.745 0 0 1 8.744 8.743v8.743c-.002 4.828-3.916 8.743-8.744 8.743zm0-78.686H135.515a8.743 8.743 0 0 1-8.743-8.743v-8.743a8.743 8.743 0 0 1 8.743-8.743h227.314a8.745 8.745 0 0 1 8.744 8.743v8.743a8.745 8.745 0 0 1-8.744 8.743zm-43.715 148.629h-183.6a8.743 8.743 0 0 1-8.743-8.743v-8.743a8.743 8.743 0 0 1 8.743-8.743h183.6a8.743 8.743 0 0 1 8.744 8.743v8.743a8.745 8.745 0 0 1-8.744 8.743zm-17.485 78.686H135.515a8.743 8.743 0 0 1-8.743-8.743v-8.743a8.743 8.743 0 0 1 8.743-8.743H301.63a8.743 8.743 0 0 1 8.743 8.743v8.743a8.745 8.745 0 0 1-8.744 8.743z"/></symbol><symbol style="enable-background:new 0 0 451.847 451.847" id="sprite-icon-down-arrow" viewBox="0 0 451.847 451.847"><path d="M225.923 354.706c-8.098 0-16.195-3.092-22.369-9.263L9.27 151.157c-12.359-12.359-12.359-32.397 0-44.751 12.354-12.354 32.388-12.354 44.748 0l171.905 171.915 171.906-171.909c12.359-12.354 32.391-12.354 44.744 0 12.365 12.354 12.365 32.392 0 44.751L248.292 345.449c-6.177 6.172-14.274 9.257-22.369 9.257z"/></symbol><symbol id="sprite-icon-instagram-fill" viewBox="0 0 512.001 512.001"><path d="M373.406 0H138.594C62.172 0 0 62.172 0 138.594V373.41C0 449.828 62.172 512 138.594 512H373.41C449.828 512 512 449.828 512 373.41V138.594C512 62.172 449.828 0 373.406 0zM256 395.996c-77.195 0-139.996-62.8-139.996-139.996S178.804 116.004 256 116.004 395.996 178.804 395.996 256 333.196 395.996 256 395.996zM399.344 149.02c-22.813 0-41.367-18.555-41.367-41.368s18.554-41.37 41.367-41.37 41.37 18.558 41.37 41.37-18.558 41.368-41.37 41.368zm0 0"/><path d="M256 146.02c-60.64 0-109.98 49.335-109.98 109.98 0 60.64 49.34 109.98 109.98 109.98 60.645 0 109.98-49.34 109.98-109.98 0-60.645-49.335-109.98-109.98-109.98zM399.344 96.3c-6.258 0-11.352 5.095-11.352 11.352 0 6.258 5.094 11.352 11.352 11.352 6.261 0 11.355-5.09 11.355-11.352 0-6.261-5.094-11.351-11.355-11.351zm0 0"/></symbol><symbol id="sprite-icon-instagram" viewBox="0 0 511 511.9"><path d="M510.95 150.5c-1.2-27.2-5.598-45.898-11.9-62.102-6.5-17.199-16.5-32.597-29.6-45.398-12.802-13-28.302-23.102-45.302-29.5-16.296-6.3-34.898-10.7-62.097-11.898C334.648.3 325.949 0 256.449 0s-78.199.3-105.5 1.5c-27.199 1.2-45.898 5.602-62.097 11.898-17.204 6.5-32.602 16.5-45.403 29.602-13 12.8-23.097 28.3-29.5 45.3-6.3 16.302-10.699 34.9-11.898 62.098C.75 177.801.449 186.5.449 256s.301 78.2 1.5 105.5c1.2 27.2 5.602 45.898 11.903 62.102 6.5 17.199 16.597 32.597 29.597 45.398 12.801 13 28.301 23.102 45.301 29.5 16.3 6.3 34.898 10.7 62.102 11.898 27.296 1.204 36 1.5 105.5 1.5s78.199-.296 105.5-1.5c27.199-1.199 45.898-5.597 62.097-11.898a130.934 130.934 0 0 0 74.903-74.898c6.296-16.301 10.699-34.903 11.898-62.102 1.2-27.3 1.5-36 1.5-105.5s-.102-78.2-1.3-105.5zm-46.098 209c-1.102 25-5.301 38.5-8.801 47.5-8.602 22.3-26.301 40-48.602 48.602-9 3.5-22.597 7.699-47.5 8.796-27 1.204-35.097 1.5-103.398 1.5s-76.5-.296-103.403-1.5c-25-1.097-38.5-5.296-47.5-8.796C94.551 451.5 84.45 445 76.25 436.5c-8.5-8.3-15-18.3-19.102-29.398-3.5-9-7.699-22.602-8.796-47.5-1.204-27-1.5-35.102-1.5-103.403s.296-76.5 1.5-103.398c1.097-25 5.296-38.5 8.796-47.5C61.25 94.199 67.75 84.1 76.352 75.898c8.296-8.5 18.296-15 29.398-19.097 9-3.5 22.602-7.7 47.5-8.801 27-1.2 35.102-1.5 103.398-1.5 68.403 0 76.5.3 103.403 1.5 25 1.102 38.5 5.3 47.5 8.8 11.097 4.098 21.199 10.598 29.398 19.098 8.5 8.301 15 18.301 19.102 29.403 3.5 9 7.699 22.597 8.8 47.5 1.2 27 1.5 35.097 1.5 103.398s-.3 76.301-1.5 103.301zm0 0"/><path d="M256.45 124.5c-72.598 0-131.5 58.898-131.5 131.5s58.902 131.5 131.5 131.5c72.6 0 131.5-58.898 131.5-131.5s-58.9-131.5-131.5-131.5zm0 216.8c-47.098 0-85.302-38.198-85.302-85.3s38.204-85.3 85.301-85.3c47.102 0 85.301 38.198 85.301 85.3s-38.2 85.3-85.3 85.3zm167.402-222c0 16.954-13.747 30.7-30.704 30.7-16.953 0-30.699-13.746-30.699-30.7 0-16.956 13.746-30.698 30.7-30.698 16.956 0 30.703 13.742 30.703 30.699zm0 0"/></symbol><symbol style="enable-background:new 0 0 612.001 612.002" id="sprite-icon-insurance" viewBox="0 0 612.001 612.002"><path d="m599.293 116.954-66.904-83.936a33.306 33.306 0 0 0-26.047-12.548H160.551a33.31 33.31 0 0 0-26.046 12.547l-66.903 83.937c-6.989 8.769-12.708 25.118-12.708 37.46v61.482c5.314-8.36 13.081-14.635 22.395-17.845.521-7.026 2.651-13.84 6.294-20.045 6.311-10.75 16.435-18.394 28.502-21.533 4.326-1.13 8.287-1.642 12.247-1.642 15.955 0 30.413 8.116 38.879 20.866a44.376 44.376 0 0 1 7.619-.667c7.834 0 15.237 2.154 21.686 5.866l37.059-9.639a56.225 56.225 0 0 1 14.198-1.821c25.631 0 48.035 17.337 54.492 42.164l72.627 279.135c3.789 14.563 1.675 29.729-5.937 42.708-7.62 12.979-19.842 22.208-34.406 25.998l-32.413 8.431h272.229c22.995 0 41.636-18.641 41.636-41.635L612 153.286c0-11.214-5.718-27.563-12.707-36.332zm-509.828-.71 22.156-27.797h151.166l14.917-24.526H131.171l16.357-20.522a16.57 16.57 0 0 1 13.023-6.274h345.792c5.099 0 9.846 2.287 13.023 6.274l16.357 20.522H386.58l8.327 24.526h160.366l22.155 27.797H89.465zm6.758 102.558-9.345 2.431c-9.953 2.59-15.923 12.758-13.334 22.711l.095.364c2.59 9.954 12.758 15.923 22.712 13.334l79.252-20.618c9.954-2.589 15.923-12.757 13.334-22.712l-.095-.364c-2.59-9.953-12.758-15.923-22.711-13.334l-9.345 2.431c-4.993 1.299-10.095-1.696-11.394-6.689l-.08-.304c-3.017-11.596-14.862-18.551-26.458-15.534l-.485.126c-11.596 3.017-18.55 14.862-15.534 26.458l.08.304c1.297 4.996-1.698 10.097-6.692 11.396zm25.545-26.081c5.027-1.308 10.163 1.708 11.47 6.734a9.404 9.404 0 0 1-6.735 11.47c-5.027 1.307-10.162-1.708-11.47-6.734-1.307-5.027 1.708-10.163 6.735-11.47zm116.798 287.085a6.27 6.27 0 0 1-4.489 7.647l-115.299 29.994a6.271 6.271 0 0 1-7.647-4.49l-1.579-6.067a6.269 6.269 0 0 1 4.49-7.647l115.298-29.994a6.27 6.27 0 0 1 7.647 4.489l1.579 6.068zm14.062-120.28 1.579 6.068a6.268 6.268 0 0 1-4.49 7.646L91.941 414.287a6.27 6.27 0 0 1-7.647-4.489l-1.579-6.069a6.268 6.268 0 0 1 4.49-7.646l157.776-41.045a6.268 6.268 0 0 1 7.647 4.488zm-17.119-40.899L77.733 359.672a6.271 6.271 0 0 1-7.647-4.49l-1.579-6.068a6.269 6.269 0 0 1 4.49-7.646l157.776-41.045a6.27 6.27 0 0 1 7.647 4.489l1.579 6.069a6.27 6.27 0 0 1-4.49 7.646zm-3.504 111.054L104.57 462.833a6.271 6.271 0 0 1-7.647-4.49l-1.579-6.068a6.27 6.27 0 0 1 4.49-7.647l127.434-33.15a6.27 6.27 0 0 1 7.647 4.489l1.579 6.068a6.267 6.267 0 0 1-4.489 7.646zm114.704 67.345-72.618-279.143c-4.359-16.757-21.478-26.807-38.235-22.448l-37.004 9.627a31.179 31.179 0 0 1 2.126 5.729c4.421 16.996-5.588 34.045-22.22 38.372l-78.087 20.314c-15.94 4.147-33.103-4.061-38.454-19.638a32.305 32.305 0 0 1-1.709-8.788l-37.042 9.637c-16.757 4.359-26.807 21.478-22.448 38.234l72.618 279.143c4.36 16.758 21.478 26.808 38.235 22.448l212.392-55.253c16.756-4.359 26.806-21.477 22.446-38.234zm-242.732 63.146L40.831 317.44l212.391-55.253 63.147 242.732-212.392 55.253z"/></symbol><symbol id="sprite-icon-internet" viewBox="0 0 512 512"><path d="M241 0v151h99.858c6.169 4.97 32.408 33.2 35.142 36.211L412.211 151H512V0zm90 91h-30V61h30zm60 0h-30V61h30zm60 0h-30V61h30zM171.142 361c-6.169-4.97-32.408-33.2-35.142-36.211L99.789 361H0v151h271V361zM91 451H61v-30h30zm60 0h-30v-30h30zm60 0h-30v-30h30z"/><path d="M219.555 181c-4.2 16.959-7.011 37.224-7.954 60h88.705c-.917-21.603-3.71-41.944-8.188-60zm.327 150h72.563c4.2-16.959 7.011-37.224 7.954-60h-88.705c.917 21.603 3.71 41.944 8.188 60zm110.413-90h89.225c-1.501-15.397-4.521-30.439-10.181-44.702l-33.545 33.554-38.057-39.287c-2.358-3.267-5.127-6.46-8.247-9.565h-6.356c4.046 18.444 6.341 38.756 7.161 60zm-148.987 0c1.84-45.278 11.97-90.352 29.692-119.09V97.396C146.54 115.717 98.546 172.372 92.258 241zm149.384 30c-1.84 45.278-11.97 90.352-29.692 119.09v24.514C365.46 396.283 413.454 339.628 419.742 271zm-148.987 0H92.481c1.503 15.394 4.523 30.434 10.182 44.698l33.541-33.55 38.057 39.287c2.358 3.267 5.127 6.46 8.247 9.565h6.356c-4.044-18.444-6.339-38.756-7.159-60z"/></symbol><symbol style="enable-background:new 0 0 512 512" id="sprite-icon-mail" viewBox="0 0 512 512"><path d="M339.392 258.624 512 367.744V144.896z"/><path d="M0 144.896v222.848l172.608-109.12z"/><path d="M480 80H32C16.032 80 3.36 91.904.96 107.232L256 275.264l255.04-168.032C508.64 91.904 495.968 80 480 80z"/><path d="m310.08 277.952-45.28 29.824a15.983 15.983 0 0 1-8.8 2.624c-3.072 0-6.112-.864-8.8-2.624l-45.28-29.856L1.024 404.992C3.488 420.192 16.096 432 32 432h448c15.904 0 28.512-11.808 30.976-27.008L310.08 277.952z"/></symbol><symbol style="enable-background:new 0 0 512 512" id="sprite-icon-menu" viewBox="0 0 512 512"><path d="M492 236H20c-11.046 0-20 8.954-20 20s8.954 20 20 20h472c11.046 0 20-8.954 20-20s-8.954-20-20-20z"/><path d="M492 76H20C8.954 76 0 84.954 0 96s8.954 20 20 20h472c11.046 0 20-8.954 20-20s-8.954-20-20-20z"/><path d="M492 396H20c-11.046 0-20 8.954-20 20s8.954 20 20 20h472c11.046 0 20-8.954 20-20s-8.954-20-20-20z"/></symbol><symbol id="sprite-icon-outline-twitter" viewBox="0 0 24 24"><path d="M.473 19.595a13.928 13.928 0 0 0 7.478 2.155c3.91 0 7.493-1.502 10.09-4.229 2.485-2.61 3.852-6.117 3.784-9.676.942-.806 2.05-2.345 2.05-3.845a.75.75 0 0 0-1.13-.647c-.885.52-1.692.656-2.522.423-1.695-1.652-4.218-2-6.344-.854-1.858 1-2.891 2.83-2.798 4.83A12.427 12.427 0 0 1 3.02 3.349a.75.75 0 0 0-1.226.1C.82 5.117.83 7.05 1.677 8.611a.78.78 0 0 0-.652.777 5.29 5.29 0 0 0 1.843 3.995.749.749 0 0 0-.192.777 5.384 5.384 0 0 0 3.047 3.264 8.732 8.732 0 0 1-4.756.794c-.784-.106-1.171.948-.494 1.377zm7.683-1.914c.561-.431.263-1.329-.441-1.344a3.912 3.912 0 0 1-3.072-1.598 5.29 5.29 0 0 0 1.024-.164c.761-.206.725-1.304-.048-1.459a3.85 3.85 0 0 1-2.917-2.62c.377.093.761.145 1.144.152.759.004 1.046-.969.427-1.376-1.395-.919-1.99-2.542-1.596-4.068a13.943 13.943 0 0 0 9.237 4.123.749.749 0 0 0 .767-.917c-.475-2.059.675-3.502 1.91-4.167 1.222-.66 3.184-.866 4.688.712.447.471 1.955.489 2.722.31-.344.648-.873 1.263-1.368 1.609a.75.75 0 0 0-.319.651c.161 3.285-1.063 6.551-3.358 8.96-2.312 2.427-5.509 3.764-9.004 3.764-1.39 0-2.753-.226-4.041-.662 1.54-.298 3.003-.95 4.245-1.906z"/></symbol><symbol id="sprite-icon-outline-vk" viewBox="0 0 24 24"><path d="M12.145 19.5c3.472 0 2.234-2.198 2.502-2.83-.004-.472-.008-.926.008-1.202.22.062.739.325 1.811 1.367 1.655 1.67 2.078 2.665 3.415 2.665h2.461c.78 0 1.186-.323 1.389-.594.196-.262.388-.722.178-1.438-.549-1.724-3.751-4.701-3.95-5.015a2.84 2.84 0 0 1 .103-.175h-.002c.632-.835 3.044-4.449 3.399-5.895a.019.019 0 0 0 .002-.008c.192-.66.016-1.088-.166-1.33-.274-.362-.71-.545-1.299-.545h-2.461c-.824 0-1.449.415-1.765 1.172-.529 1.345-2.015 4.111-3.129 5.09a64.114 64.114 0 0 1 .007-3.233c.036-1.535.152-3.029-1.441-3.029H9.339c-.998 0-1.953 1.09-.919 2.384.904 1.134.325 1.766.52 4.912-.76-.815-2.112-3.016-3.068-5.829-.268-.761-.674-1.466-1.817-1.466H1.594C.596 4.501 0 5.045 0 5.956 0 8.002 4.529 19.5 12.145 19.5zM4.055 6.001c.217 0 .239 0 .4.457.979 2.883 3.175 7.149 4.779 7.149 1.205 0 1.205-1.235 1.205-1.7l-.001-3.702C10.372 6.98 9.926 6.37 9.633 6l3.508.004c.002.017-.02 4.095.01 5.083 0 1.403 1.114 2.207 2.853.447 1.835-2.071 3.104-5.167 3.155-5.293.075-.18.14-.241.376-.241h2.471l-.002.009c-.225 1.05-2.446 4.396-3.189 5.435l-.034.05c-.327.534-.593 1.124.045 1.954h.001c.058.07.209.234.429.462.684.706 3.03 3.12 3.238 4.08-.138.022-.288.006-2.613.011-.495 0-.882-.74-2.359-2.23-1.328-1.292-2.19-1.82-2.975-1.82-1.524 0-1.413 1.237-1.399 2.733.005 1.622-.005 1.109.006 1.211-.089.035-.344.105-1.009.105C5.8 18 1.668 7.929 1.509 6.004c.055-.005.812-.002 2.546-.003z"/></symbol><symbol style="enable-background:new 0 0 513.64 513.64" id="sprite-icon-phone" viewBox="0 0 513.64 513.64"><path d="m499.66 376.96-71.68-71.68c-25.6-25.6-69.12-15.359-79.36 17.92-7.68 23.041-33.28 35.841-56.32 30.72-51.2-12.8-120.32-79.36-133.12-133.12-7.68-23.041 7.68-48.641 30.72-56.32 33.28-10.24 43.52-53.76 17.92-79.36l-71.68-71.68c-20.48-17.92-51.2-17.92-69.12 0L18.38 62.08c-48.64 51.2 5.12 186.88 125.44 307.2s256 176.641 307.2 125.44l48.64-48.64c17.921-20.48 17.921-51.2 0-69.12z"/></symbol><symbol style="enable-background:new 0 0 512 512" id="sprite-icon-pin" viewBox="0 0 512 512"><path d="M256 0C153.755 0 70.573 83.182 70.573 185.426c0 126.888 165.939 313.167 173.004 321.035 6.636 7.391 18.222 7.378 24.846 0 7.065-7.868 173.004-194.147 173.004-321.035C441.425 83.182 358.244 0 256 0zm0 278.719c-51.442 0-93.292-41.851-93.292-93.293S204.559 92.134 256 92.134s93.291 41.851 93.291 93.293-41.85 93.292-93.291 93.292z"/></symbol><symbol style="enable-background:new 0 0 612 612" id="sprite-icon-storage" viewBox="0 0 612 612"><path d="M392.287 76.331H376.69l4.537-15.378c1.438-4.978 3.209-13.608 3.209-13.608h.223s1.77 8.63 3.203 13.608l4.425 15.378zm-76.85-20.905c0-5.972-2.215-9.511-11.948-9.511h-6.525v19.24h8.408c6.194 0 10.065-3.426 10.065-9.729zm-93.074 36.605c11.838 0 21.35-10.174 21.35-23.668 0-12.937-9.511-22.675-21.35-22.675-11.834 0-21.345 9.738-21.345 22.675 0 13.494 9.511 23.668 21.345 23.668zm292.889 46.112v35.48h21.578c29.581 0 53.561 23.98 53.561 53.561V612H487.02V296.46H118.843V612H21.608V227.185c0-29.581 23.979-53.561 53.561-53.561h21.578v-35.48H48.388c-14.791 0-26.78-11.99-26.78-26.781V26.78C21.608 11.99 33.598 0 48.388 0h515.224c14.79 0 26.78 11.99 26.78 26.78v84.582c0 14.791-11.99 26.78-26.78 26.78l-48.36.001zm.832-29.74h51.099v-16.59h-31.746V76.879h24.113V60.291h-24.113V45.915h30.198V29.316h-49.551v79.087zm-168.588 0h19.906l4.756-16.59h24.666l4.865 16.59h19.91l-26.876-79.086h-20.351l-26.876 79.086zm-69.89 0h19.358V81.744h9.07l14.044 26.659h21.571L326.277 80.75c-1.883-3.312-2.99-4.751-2.99-4.751v-.227c7.854-3.984 11.838-13.163 11.838-21.567 0-11.499-5.645-19.58-14.603-23.006-3.43-1.325-7.301-1.883-15.373-1.883h-27.543v79.087zm-96.608-40.04c0 23.232 17.474 41.365 41.365 41.365s41.37-18.133 41.37-41.365c0-22.675-17.479-40.372-41.37-40.372s-41.365 17.697-41.365 40.372zm-77.822 16.816c0-25.001-35.615-23.232-35.615-33.188 0-4.42 4.424-6.189 8.408-6.189 9.511 0 17.474 6.965 17.474 6.965l8.186-15.813s-8.408-8.962-25.442-8.962c-15.705 0-27.979 9.625-27.979 24.226 0 24.331 35.612 24 35.612 33.397 0 4.76-4.311 6.311-8.295 6.311-9.956 0-18.913-8.185-18.913-8.185L46.437 98.446s10.282 11.281 28.868 11.281c17.806.001 27.871-11.393 27.871-24.548zm49.533-39.264h24V29.316h-67.36v16.599h24.004v62.488h19.357l-.001-62.488zm298.863 92.228H160.427v35.48h291.145v-35.48zm48.259-74.427h-28.314v16.485h11.171v6.076s-6.747 5.754-16.041 5.754c-12.273 0-22.674-8.953-22.674-24 0-11.725 6.747-22.343 23.337-22.343 11.171 0 19.248 7.305 19.248 7.305l9.289-14.488s-10.174-10.514-30.416-10.514c-24.113 0-41.474 17.697-41.474 40.703 0 25.882 18.577 41.034 38.819 41.034 13.163 0 20.796-6.852 20.796-6.852h.218s-.108 1.656-.108 3.312v2.214h16.148l.001-44.686zm-34.496 539.357v-16.18a8.926 8.926 0 0 0-8.927-8.927H155.59a8.927 8.927 0 0 0-8.927 8.927v16.18A8.927 8.927 0 0 0 155.59 612h300.82a8.926 8.926 0 0 0 8.925-8.927zm0-245.487v-16.18a8.927 8.927 0 0 0-8.927-8.927H155.59a8.927 8.927 0 0 0-8.927 8.927v16.18a8.927 8.927 0 0 0 8.927 8.927h300.82a8.926 8.926 0 0 0 8.925-8.927zm0 61.372v-16.181a8.927 8.927 0 0 0-8.927-8.927H155.59a8.927 8.927 0 0 0-8.927 8.927v16.181a8.927 8.927 0 0 0 8.927 8.927h300.82a8.926 8.926 0 0 0 8.925-8.927zm0 61.372v-16.18a8.926 8.926 0 0 0-8.927-8.927H155.59a8.927 8.927 0 0 0-8.927 8.927v16.18a8.927 8.927 0 0 0 8.927 8.927h300.82a8.926 8.926 0 0 0 8.925-8.927zm0 61.371v-16.18a8.926 8.926 0 0 0-8.927-8.927H155.59a8.927 8.927 0 0 0-8.927 8.927v16.18a8.927 8.927 0 0 0 8.927 8.927h300.82a8.926 8.926 0 0 0 8.925-8.927z"/></symbol><symbol style="enable-background:new 0 0 611.997 611.997" id="sprite-icon-truck-group" viewBox="0 0 611.997 611.997"><path d="M594.389 126.198h-106.9V82.852c0-9.726-7.886-17.611-17.611-17.611H142.124c-9.726 0-17.611 7.885-17.611 17.611v43.347H17.611C7.885 126.198 0 134.083 0 143.809v309.742c0 9.727 7.885 17.611 17.611 17.611h106.901v29.209a9.581 9.581 0 0 0 9.582 9.582h12.336v27.221a9.581 9.581 0 0 0 9.582 9.582h57.761a9.581 9.581 0 0 0 9.582-9.582v-27.221h165.701v27.221c0 5.293 4.29 9.582 9.581 9.582h57.762a9.58 9.58 0 0 0 9.581-9.582v-27.221h11.924c5.292 0 9.581-4.291 9.581-9.582v-29.209h106.901c9.727 0 17.611-7.885 17.611-17.611V143.809c.003-9.726-7.882-17.611-17.608-17.611zM448.62 446.491H163.379V139.162H448.62v307.329zM278.908 333.184H249.6v14.525h-13.691v-14.525h-29.488c-10.658 0-19.297 8.641-19.297 19.297v64.348c0 10.658 8.64 19.297 19.297 19.297h72.487c10.658 0 19.297-8.639 19.297-19.297v-64.348c.001-10.656-8.64-19.297-19.297-19.297zm-30.138 55.951v28.355h-17.128v-28.355h-12.109l20.748-24.555 20.672 24.645s-.119-.09-12.183-.09zm156.808-55.951H376.27v14.525h-13.691v-14.525h-29.487c-10.657 0-19.297 8.641-19.297 19.297v64.348c0 10.658 8.64 19.297 19.297 19.297h72.486c10.658 0 19.298-8.639 19.298-19.297v-64.348c0-10.656-8.64-19.297-19.298-19.297zm-30.139 55.951v28.355h-17.128v-28.355h-12.109l20.748-24.555 20.672 24.645c.001 0-.116-.09-12.183-.09zm-33.196-175.723h-29.308v14.525h-13.691v-14.525h-29.487c-10.658 0-19.297 8.64-19.297 19.297v64.347c0 10.657 8.64 19.298 19.297 19.298h72.486c10.657 0 19.298-8.641 19.298-19.298v-64.347c0-10.657-8.64-19.297-19.298-19.297zm-30.139 55.95v28.357h-17.128v-28.357h-12.109l20.748-24.554 20.672 24.643c.001.001-.117-.089-12.183-.089z"/></symbol><symbol id="sprite-icon-truck-ref" viewBox="0 0 612 612"><path d="M612 327.573v-21.606a39.44 39.44 0 0 0-11.701-28.037L484.107 162.971a39.438 39.438 0 0 0-27.739-11.403h-58.622V129.58c0-16.336-13.243-29.58-29.58-29.58H29.58C13.243 100 0 113.243 0 129.58v197.993h612zM432.551 190.316a4.63 4.63 0 0 1 4.635-4.634h21.396c1.184 0 2.366.494 3.253 1.282l91.006 86.865c3.057 2.86.986 7.987-3.154 7.987h-112.5a4.63 4.63 0 0 1-4.635-4.634v-86.866h-.001zM612 343.916v65.486c0 16.336-13.243 29.578-29.579 29.578h-31.65c-5.719-39.242-39.539-69.412-80.357-69.412-40.721 0-74.54 30.17-80.259 69.412h-160.42c-5.718-39.242-39.538-69.412-80.259-69.412-40.721 0-74.541 30.17-80.259 69.412H29.58C13.243 438.981 0 425.739 0 409.403v-65.486h612v-.001zm-141.544 45.41c-33.883 0-61.351 27.467-61.351 61.35s27.469 61.35 61.351 61.35 61.35-27.467 61.35-61.35-27.467-61.35-61.35-61.35zm0 92.026c-16.941 0-30.675-13.734-30.675-30.676s13.732-30.674 30.675-30.674c16.941 0 30.676 13.732 30.676 30.674s-13.735 30.676-30.676 30.676zm-320.992-92.026c-33.883 0-61.35 27.467-61.35 61.35s27.468 61.35 61.35 61.35c33.882 0 61.35-27.467 61.35-61.35s-27.468-61.35-61.35-61.35zm0 92.026c-16.941 0-30.676-13.734-30.676-30.676s13.734-30.674 30.676-30.674c16.941 0 30.675 13.732 30.675 30.674s-13.734 30.676-30.675 30.676z"/><path d="m303.367 260.322-15.668-9.031 13.578-7.993a5.25 5.25 0 0 0 1.86-7.196 5.27 5.27 0 0 0-7.208-1.858l-18.702 11.01-28.2-16.254 28.195-16.252 18.708 11.008a5.264 5.264 0 0 0 7.207-1.859 5.251 5.251 0 0 0-1.862-7.196l-13.579-7.991 15.671-9.032a5.25 5.25 0 0 0 1.926-7.179 5.267 5.267 0 0 0-7.19-1.923l-15.667 9.031-.143-15.738c-.026-2.903-2.411-5.248-5.311-5.208a5.26 5.26 0 0 0-5.216 5.302l.196 21.681-28.198 16.254v-32.506l18.906-10.667a5.25 5.25 0 0 0 1.992-7.161 5.269 5.269 0 0 0-7.173-1.99l-13.725 7.745v-18.064A5.26 5.26 0 0 0 238.5 152a5.259 5.259 0 0 0-5.263 5.255v18.064l-13.726-7.744a5.267 5.267 0 0 0-7.172 1.989 5.251 5.251 0 0 0 1.992 7.162l18.905 10.667v32.505l-28.198-16.254.196-21.681a5.26 5.26 0 0 0-5.216-5.302h-.049a5.26 5.26 0 0 0-5.262 5.208l-.143 15.738-15.667-9.031a5.268 5.268 0 0 0-7.19 1.923 5.25 5.25 0 0 0 1.926 7.179l15.67 9.032-13.581 7.992a5.251 5.251 0 0 0-1.862 7.196 5.263 5.263 0 0 0 7.208 1.86l18.71-11.009 28.195 16.252-28.2 16.255-18.705-11.012a5.27 5.27 0 0 0-7.208 1.857 5.25 5.25 0 0 0 1.861 7.196l13.579 7.993-15.667 9.031a5.25 5.25 0 0 0-1.927 7.178 5.263 5.263 0 0 0 7.19 1.924l15.668-9.031.142 15.739a5.26 5.26 0 0 0 5.263 5.208l.048-.001a5.258 5.258 0 0 0 5.216-5.302l-.196-21.681 28.199-16.254v32.506l-18.905 10.667a5.251 5.251 0 0 0-1.992 7.162 5.263 5.263 0 0 0 7.172 1.989l13.726-7.744v18.064A5.259 5.259 0 0 0 238.5 306a5.26 5.26 0 0 0 5.264-5.255v-18.064l13.725 7.744a5.265 5.265 0 0 0 7.173-1.989 5.251 5.251 0 0 0-1.992-7.162l-18.906-10.667v-32.505l28.198 16.253-.201 21.68a5.26 5.26 0 0 0 5.215 5.304l.05.001a5.26 5.26 0 0 0 5.262-5.207l.146-15.741 15.67 9.032a5.264 5.264 0 0 0 7.19-1.924 5.25 5.25 0 0 0-1.927-7.178z" fill="#fff"/></symbol><symbol style="enable-background:new 0 0 612 612" id="sprite-icon-truck" viewBox="0 0 612 612"><path d="M612 327.56v-21.606a39.44 39.44 0 0 0-11.701-28.037L484.107 162.958a39.438 39.438 0 0 0-27.739-11.403h-58.622v-21.988c0-16.336-13.243-29.58-29.58-29.58H29.58C13.243 99.987 0 113.23 0 129.567V327.56h612zM432.551 190.303a4.63 4.63 0 0 1 4.635-4.634h21.396c1.184 0 2.366.494 3.253 1.282l91.006 86.865c3.057 2.86.986 7.987-3.154 7.987h-112.5a4.63 4.63 0 0 1-4.635-4.634v-86.866zM612 343.903v65.486c0 16.336-13.243 29.578-29.579 29.578h-31.65c-5.719-39.242-39.539-69.412-80.357-69.412-40.721 0-74.54 30.17-80.259 69.412h-160.42c-5.718-39.242-39.538-69.412-80.259-69.412-40.721 0-74.541 30.17-80.259 69.412H29.58C13.243 438.968 0 425.726 0 409.39v-65.486h612zm-141.544 45.41c-33.883 0-61.351 27.467-61.351 61.35s27.469 61.35 61.351 61.35 61.35-27.467 61.35-61.35-27.467-61.35-61.35-61.35zm0 92.026c-16.941 0-30.675-13.734-30.675-30.676s13.732-30.674 30.675-30.674c16.941 0 30.676 13.732 30.676 30.674s-13.735 30.676-30.676 30.676zm-320.992-92.026c-33.883 0-61.35 27.467-61.35 61.35s27.468 61.35 61.35 61.35 61.35-27.467 61.35-61.35-27.468-61.35-61.35-61.35zm0 92.026c-16.941 0-30.676-13.734-30.676-30.676s13.734-30.674 30.676-30.674c16.941 0 30.675 13.732 30.675 30.674s-13.734 30.676-30.675 30.676z"/></symbol><symbol style="enable-background:new 0 0 512 512" id="sprite-icon-twitter" viewBox="0 0 512 512"><path d="M512 97.248c-19.04 8.352-39.328 13.888-60.48 16.576 21.76-12.992 38.368-33.408 46.176-58.016-20.288 12.096-42.688 20.64-66.56 25.408C411.872 60.704 384.416 48 354.464 48c-58.112 0-104.896 47.168-104.896 104.992 0 8.32.704 16.32 2.432 23.936-87.264-4.256-164.48-46.08-216.352-109.792-9.056 15.712-14.368 33.696-14.368 53.056 0 36.352 18.72 68.576 46.624 87.232-16.864-.32-33.408-5.216-47.424-12.928v1.152c0 51.008 36.384 93.376 84.096 103.136-8.544 2.336-17.856 3.456-27.52 3.456-6.72 0-13.504-.384-19.872-1.792 13.6 41.568 52.192 72.128 98.08 73.12-35.712 27.936-81.056 44.768-130.144 44.768-8.608 0-16.864-.384-25.12-1.44C46.496 446.88 101.6 464 161.024 464c193.152 0 298.752-160 298.752-298.688 0-4.64-.16-9.12-.384-13.568 20.832-14.784 38.336-33.248 52.608-54.496z"/></symbol><symbol id="sprite-icon-two-down-arrows" viewBox="0 0 220.682 220.682"><path d="m110.341 220.682 99.702-99.702-28.285-28.285-71.417 71.418-71.417-71.418-28.285 28.285z"/><path d="M210.043 28.284 181.758 0l-71.417 71.418L38.924 0 10.639 28.284l99.702 99.702z"/></symbol><symbol id="sprite-icon-vk" viewBox="0 0 24 24"><path d="M19.915 13.028c-.388-.49-.277-.708 0-1.146.005-.005 3.208-4.431 3.538-5.932l.002-.001c.164-.547 0-.949-.793-.949h-2.624c-.668 0-.976.345-1.141.731 0 0-1.336 3.198-3.226 5.271-.61.599-.892.791-1.225.791-.164 0-.419-.192-.419-.739V5.949c0-.656-.187-.949-.74-.949H9.161c-.419 0-.668.306-.668.591 0 .622.945.765 1.043 2.515v3.797c0 .832-.151.985-.486.985-.892 0-3.057-3.211-4.34-6.886-.259-.713-.512-1.001-1.185-1.001H.9c-.749 0-.9.345-.9.731 0 .682.892 4.073 4.148 8.553C6.318 17.343 9.374 19 12.154 19c1.671 0 1.875-.368 1.875-1.001 0-2.922-.151-3.198.686-3.198.388 0 1.056.192 2.616 1.667C19.114 18.217 19.407 19 20.405 19h2.624c.748 0 1.127-.368.909-1.094-.499-1.527-3.871-4.668-4.023-4.878z"/></symbol></svg>